<?xml version="1.0" encoding="utf-8"?>
<!-- Generator: Adobe Illustrator 22.1.0, SVG Export Plug-In . SVG Version: 6.00 Build 0)  -->
<svg version="1.1" id="Layer_1" xmlns="http://www.w3.org/2000/svg" xmlns:xlink="http://www.w3.org/1999/xlink" x="0px" y="0px"
	 viewBox="0 0 126.9 38.7" style="enable-background:new 0 0 126.9 38.7;" xml:space="preserve">
<style type="text/css">
	.st0{fill:#FE9603;}
	.st1{fill:none;stroke:#FE9603;stroke-linecap:round;stroke-linejoin:round;}
	.st2{font-family:'Poppins-SemiBold';}
	.st3{font-size:13.097px;}
</style>
<path class="st0" d="M17.3-17.8c0.3,0.3,0.7,0.6,1.1,0.8c0.4,0.2,0.8,0.3,1.3,0.3c0.4,0,0.8-0.1,1.2-0.3c0.3-0.2,0.4-0.5,0.4-0.9
	c0-0.2,0-0.3-0.1-0.5c-0.1-0.1-0.2-0.2-0.3-0.3c-0.1-0.1-0.3-0.2-0.5-0.3l-0.6-0.3l-1.3-0.5c-0.2-0.1-0.5-0.2-0.7-0.4
	c-0.2-0.1-0.4-0.3-0.6-0.5c-0.4-0.4-0.6-1-0.5-1.6c0-0.3,0.1-0.7,0.2-1c0.2-0.3,0.4-0.6,0.6-0.8c0.3-0.2,0.6-0.4,1-0.5
	c0.4-0.1,0.7-0.2,1.1-0.2c0.5,0,1.1,0.1,1.5,0.3c0.5,0.2,0.9,0.5,1.3,0.8l-0.8,1c-0.3-0.2-0.6-0.4-0.9-0.6c-0.3-0.1-0.7-0.2-1.1-0.2
	c-0.4,0-0.7,0.1-1,0.3c-0.3,0.2-0.4,0.5-0.4,0.8c0,0.2,0,0.3,0.1,0.5c0.1,0.1,0.2,0.2,0.3,0.3c0.1,0.1,0.3,0.2,0.5,0.3l0.5,0.2
	l1.3,0.5c0.3,0.1,0.5,0.2,0.7,0.4c0.2,0.1,0.4,0.3,0.6,0.5c0.2,0.2,0.3,0.4,0.4,0.7c0.1,0.3,0.1,0.6,0.1,0.9c0,0.4-0.1,0.7-0.2,1.1
	c-0.2,0.3-0.4,0.6-0.6,0.9c-0.3,0.3-0.6,0.5-1,0.6c-0.4,0.2-0.9,0.2-1.4,0.2c-1.2,0-2.4-0.5-3.3-1.3L17.3-17.8z M24.2-17.4
	c0-0.7,0.4-1.4,1-1.7c1-0.5,2-0.8,3.1-0.8c0-0.2,0-0.3-0.1-0.5c-0.1-0.1-0.1-0.3-0.3-0.4c-0.1-0.1-0.2-0.2-0.4-0.3
	c-0.2-0.1-0.4-0.1-0.6-0.1c-0.3,0-0.7,0.1-1,0.2c-0.3,0.1-0.6,0.3-0.9,0.5l-0.6-1.1c0.4-0.3,0.8-0.5,1.3-0.6c0.5-0.2,1-0.3,1.5-0.3
	c0.7-0.1,1.4,0.2,1.9,0.7c0.5,0.7,0.7,1.5,0.6,2.3v4.1h-1.3l-0.1-0.8c-0.3,0.3-0.6,0.5-1,0.7c-0.4,0.2-0.7,0.3-1.1,0.3
	c-0.5,0-1.1-0.2-1.5-0.6C24.4-16.2,24.2-16.7,24.2-17.4L24.2-17.4z M25.8-17.4c0,0.3,0.1,0.5,0.3,0.7c0.2,0.1,0.5,0.2,0.7,0.2
	c0.3,0,0.5-0.1,0.7-0.2c0.3-0.2,0.5-0.3,0.7-0.6v-1.5c-0.4,0-0.8,0.1-1.2,0.2c-0.3,0.1-0.5,0.2-0.8,0.3c-0.2,0.1-0.3,0.2-0.4,0.4
	C25.8-17.8,25.8-17.6,25.8-17.4z M31-22.3h1.6l1,3.6l0.3,1c0.1,0.3,0.2,0.7,0.3,1h0.1c0.1-0.4,0.2-0.7,0.3-1c0.1-0.3,0.2-0.6,0.3-1
	l1.1-3.6h1.5l-2.3,6.9h-1.9L31-22.3z M38.3-18.9c0-0.5,0.1-1,0.3-1.5c0.2-0.4,0.4-0.8,0.7-1.1c0.3-0.3,0.6-0.5,1-0.7
	c0.4-0.2,0.8-0.3,1.2-0.3c0.4,0,0.8,0.1,1.2,0.2c0.3,0.2,0.6,0.4,0.9,0.7c0.2,0.3,0.4,0.6,0.5,1c0.1,0.4,0.2,0.9,0.2,1.3
	c0,0.3,0,0.5-0.1,0.8h-4.5c0,0.5,0.3,1.1,0.7,1.4c0.4,0.3,0.9,0.5,1.4,0.5c0.3,0,0.6,0,0.8-0.1c0.3-0.1,0.5-0.2,0.8-0.4l0.5,1
	c-0.3,0.2-0.7,0.4-1.1,0.5c-0.4,0.1-0.8,0.2-1.3,0.2c-0.5,0-0.9-0.1-1.3-0.3c-0.4-0.2-0.8-0.4-1.1-0.7c-0.3-0.3-0.6-0.7-0.7-1.1
	C38.3-17.9,38.3-18.4,38.3-18.9L38.3-18.9z M42.9-19.5c0-0.5-0.1-0.9-0.4-1.3c-0.3-0.3-0.7-0.5-1.1-0.5c-0.4,0-0.8,0.2-1.1,0.5
	c-0.3,0.3-0.6,0.8-0.6,1.3L42.9-19.5z M48.3-16.4c0.6-0.6,1.2-1.1,1.7-1.6s0.9-1,1.3-1.4c0.3-0.4,0.6-0.8,0.8-1.2
	c0.2-0.3,0.3-0.7,0.3-1.1c0-0.4-0.1-0.8-0.4-1.1c-0.3-0.3-0.7-0.4-1.1-0.4c-0.3,0-0.7,0.1-0.9,0.3c-0.3,0.2-0.6,0.4-0.8,0.7
	l-0.9-0.9c0.4-0.4,0.8-0.7,1.3-1c0.8-0.4,1.8-0.5,2.7-0.2c0.3,0.1,0.6,0.3,0.9,0.6c0.2,0.2,0.4,0.5,0.6,0.9c0.1,0.4,0.2,0.7,0.2,1.1
	c0,0.4-0.1,0.8-0.3,1.2c-0.2,0.4-0.5,0.8-0.7,1.2c-0.3,0.4-0.6,0.9-1,1.3c-0.4,0.4-0.8,0.9-1.3,1.4l0.8,0c0.3,0,0.5,0,0.7,0h2.2v1.3
	h-6L48.3-16.4z M58.4-15.3c-0.9,0-1.7-0.4-2.2-1.2c-0.6-1-0.9-2.3-0.8-3.5c-0.1-1.2,0.2-2.4,0.8-3.4c0.8-1.2,2.5-1.5,3.7-0.7
	c0.3,0.2,0.5,0.4,0.7,0.7c0.6,1,0.9,2.2,0.8,3.4c0.1,1.2-0.2,2.4-0.8,3.5C60.2-15.7,59.3-15.3,58.4-15.3z M58.4-16.5
	c0.2,0,0.4-0.1,0.6-0.2c0.2-0.1,0.4-0.3,0.5-0.6c0.1-0.3,0.2-0.7,0.3-1c0.1-0.5,0.1-1.1,0.1-1.6c0-0.5,0-1.1-0.1-1.6
	c-0.1-0.3-0.2-0.7-0.3-1c-0.1-0.2-0.3-0.4-0.5-0.5c-0.4-0.2-0.8-0.2-1.2,0c-0.2,0.1-0.4,0.3-0.5,0.5c-0.1,0.3-0.3,0.7-0.3,1
	C57-21,56.9-20.5,56.9-20c0,0.5,0,1.1,0.1,1.6c0.1,0.4,0.2,0.7,0.3,1.1c0.1,0.2,0.3,0.4,0.5,0.6C58-16.6,58.2-16.5,58.4-16.5z
	 M64.6-19c-0.6,0-1.2-0.3-1.6-0.8c-0.4-0.6-0.7-1.4-0.6-2.1c0-0.7,0.2-1.5,0.6-2.1c0.7-0.9,1.9-1,2.8-0.3c0.1,0.1,0.2,0.2,0.3,0.3
	c0.4,0.6,0.6,1.4,0.6,2.1c0,0.8-0.2,1.5-0.6,2.1C65.8-19.3,65.3-19,64.6-19L64.6-19z M64.6-19.9c0.3,0,0.6-0.2,0.7-0.5
	c0.2-0.5,0.3-1,0.3-1.5c0-0.5-0.1-1-0.3-1.5c-0.2-0.4-0.7-0.6-1.1-0.4c-0.2,0.1-0.3,0.2-0.4,0.4c-0.2,0.5-0.3,1-0.3,1.5
	c0,0.5,0.1,1,0.3,1.5C64-20.1,64.3-19.9,64.6-19.9L64.6-19.9z M64.9-15.3l5-9.5h1l-5,9.5H64.9z M71.2-15.3c-0.6,0-1.2-0.3-1.6-0.8
	c-0.4-0.6-0.7-1.4-0.6-2.1c0-0.8,0.2-1.5,0.6-2.1c0.7-0.9,1.9-1,2.8-0.3c0.1,0.1,0.2,0.2,0.3,0.3c0.4,0.6,0.7,1.4,0.6,2.1
	c0.1,0.8-0.2,1.5-0.6,2.2C72.4-15.6,71.8-15.3,71.2-15.3L71.2-15.3z M71.2-16.2c0.3,0,0.6-0.2,0.7-0.5c0.2-0.5,0.3-1,0.3-1.5
	c0-0.5-0.1-1-0.3-1.5c-0.2-0.4-0.7-0.6-1.1-0.4c-0.2,0.1-0.3,0.2-0.4,0.4c-0.2,0.5-0.3,1-0.3,1.5c0,0.5,0.1,1,0.3,1.5
	C70.6-16.4,70.9-16.2,71.2-16.2L71.2-16.2z"/>
<g>
	<path class="st1" d="M0.5,36.2c19.2-1.6,31.6-7.9,37.1-19.1"/>
	<path class="st1" d="M0.5,36.2l2.7,2"/>
	<path class="st1" d="M0.5,36.2l2.7-2.3"/>
</g>
<text transform="matrix(1 0 0 1 3.3333 11.4723)" class="st0 st2 st3">Higher return 100x</text>
</svg>
